:version 1.10
:name ASF
:units
  mass 1
  length 1
  angle deg
:documentation
  ASF file generated by Kaydara
:root
  axis xyz
  order  tx ty tz rx ry rz
  position 0 0 0
  orientation 0 0 0
:bonedata
  begin
    id 1
    name RightUpLegDummy
    direction -0.718183 -0.695806 0.00816078
    length 4.904
    axis 0 0 0 xyz
  end
  begin
    id 2
    name RightUpLeg
    direction 3.53989e-006 -0.995788 0.0916897
    length 17.4976
    axis -3.49089 -0.000906621 0.000287158 xyz
    dof rx ry rz
  end
  begin
    id 3
    name RightLeg
    direction 0.00371093 -0.995096 -0.0988418
    length 16.5821
    axis 3.68512 0.0193738 -0.131023 xyz
    dof rx ry rz
  end
  begin
    id 4
    name RightFoot
    direction 0.000791514 -0.46099 0.887405
    length 3.77069
    axis 4.84075e-005 -0.120479 -0.188788 xyz
    dof rx ry rz
  end
  begin
    id 5
    name RightToes
    direction 0.00124746 -0.014064 0.9999
    length 3.85082
    axis 0.00048216 0.542163 -0.142577 xyz
    dof rx ry rz
  end
  begin
    id 6
    name SpineDummy
    direction 8.36599e-015 1 5.97571e-016
    length 4.6813
    axis 0 0 0 xyz
  end
  begin
    id 7
    name Spine
    direction -4.63632e-008 0.999988 0.00495137
    length 10.1015
    axis -0.00138897 0.000121419 3.25764e-006 xyz
    dof rx ry rz
  end
  begin
    id 8
    name Spine1
    direction 0 0 0
    length 0
    axis -0.00138896 0.000121452 2.39764e-006 xyz
    dof rx ry rz
  end
  begin
    id 9
    name HEadDummy
    direction -3.91456e-008 0.999999 0.00127422
    length 3.43865
    axis -0.00138896 0.000121452 2.39764e-006 xyz
  end
  begin
    id 10
    name HEad
    direction -0.0222688 0.980941 0.193023
    length 5.12695
    axis -0.00138895 0.000121452 2.39764e-006 xyz
    dof rx ry rz
  end
  begin
    id 11
    name LeftShoulder1Dummy
    direction 0.998891 -0.0402508 -0.0244456
    length 3.5433
    axis -0.00138896 0.000121452 2.39764e-006 xyz
  end
  begin
    id 12
    name LeftShoulder1
    direction 0.99951 -0.000327743 0.0313091
    length 4.05031
    axis -0.00138896 0.000121452 2.39764e-006 xyz
    dof rx ry rz
  end
  begin
    id 13
    name LeftArm
    direction 0.998561 -0.00100054 -0.0536182
    length 10.3537
    axis -23.1894 0.134784 0.96751 xyz
    dof rx ry rz
  end
  begin
    id 14
    name LeftForeArm
    direction 0.998903 0.00866434 0.046012
    length 8.70632
    axis -9.91835 -0.06569 -0.177792 xyz
    dof rx ry rz
  end
  begin
    id 15
    name LeftHand
    direction 0.992938 -0.0411636 0.11126
    length 5.32135
    axis -0.00960227 -0.00340091 0.185174 xyz
    dof rx ry rz
  end
  begin
    id 16
    name RightShoulderDummy
    direction -0.998891 -0.0402509 -0.0244414
    length 3.5433
    axis -0.00138896 0.000121452 2.39764e-006 xyz
  end
  begin
    id 17
    name RightShoulder
    direction -0.99951 -0.000327827 0.0313133
    length 4.05031
    axis 0.215806 0.000203644 -0.00680151 xyz
    dof rx ry rz
  end
  begin
    id 18
    name RightArm
    direction -0.998573 -0.000999583 -0.053403
    length 10.3947
    axis -23.2009 -0.134239 -0.9641 xyz
    dof rx ry rz
  end
  begin
    id 19
    name RightForeArm
    direction -0.998898 0.00868026 0.0461306
    length 8.68355
    axis -9.92322 0.0658061 0.178869 xyz
    dof rx ry rz
  end
  begin
    id 20
    name RightHand
    direction -0.992843 -0.0414603 0.112003
    length 5.28593
    axis -0.00960634 0.00330671 -0.185226 xyz
    dof rx ry rz
  end
  begin
    id 21
    name LeftUpLegDummy
    direction 0.718183 -0.695806 0.00816078
    length 4.904
    axis 0 0 0 xyz
  end
  begin
    id 22
    name LeftUpLeg
    direction -6.8115e-006 -0.995793 0.0916336
    length 17.4976
    axis -3.48766 0.00143441 -0.000523914 xyz
    dof rx ry rz
  end
  begin
    id 23
    name LeftLeg
    direction -0.00601357 -0.995091 -0.0987824
    length 16.5821
    axis 3.68177 -0.00654038 -0.00028478 xyz
    dof rx ry rz
  end
  begin
    id 24
    name LeftFoot
    direction -0.00417578 -0.460984 0.887399
    length 3.77069
    axis 1.87232e-006 4.66002e-005 -8.1837e-006 xyz
    dof rx ry rz
  end
  begin
    id 25
    name LeftToes
    direction 0.00818058 -0.00485161 0.999955
    length 3.85048
    axis 1.06246e-005 4.65855e-005 -8.18502e-006 xyz
    dof rx ry rz
  end
:hierarchy
  begin
    root RightUpLegDummy SpineDummy LeftUpLegDummy
    RightUpLegDummy RightUpLeg
    RightUpLeg RightLeg
    RightLeg RightFoot
    RightFoot RightToes
    SpineDummy Spine
    Spine Spine1
    Spine1 HEadDummy LeftShoulder1Dummy RightShoulderDummy
    HEadDummy HEad
    LeftShoulder1Dummy LeftShoulder1
    LeftShoulder1 LeftArm
    LeftArm LeftForeArm
    LeftForeArm LeftHand
    RightShoulderDummy RightShoulder
    RightShoulder RightArm
    RightArm RightForeArm
    RightForeArm RightHand
    LeftUpLegDummy LeftUpLeg
    LeftUpLeg LeftLeg
    LeftLeg LeftFoot
    LeftFoot LeftToes
  end

:SAMPLES-PER-SECOND 30
:FULLY-SPECIFIED
:DEGREES
22
root  -2.9437 40.9351 1.49364 -14.1445 -88.443 15.1194
RightUpLeg  3.26956 -0.918883 -1.36237
RightLeg  -1.20523 -18.2205 -0.204636
RightFoot  -1.8059 -0.287431 3.30932
RightToes  -3.10678e-008 1.75238e-005 3.56266e-009
Spine  -1.09868 -0.78057 -1.96928
Spine1  -1.81892 -0.609467 -0.48432
HEad  -0.973012 -6.64555 1.68396
LeftShoulder1  0.132264 1.77234 0.935857
LeftArm  -54.2035 -10.8215 7.35625
LeftForeArm  57.2741 3.94565 7.01595
LeftHand  -0.109533 0.517381 2.57304
RightShoulder  0.192366 -1.43034 0.951783
RightArm  -44.89 9.9259 -1.97337
RightForeArm  34.055 -5.29683 -0.182194
RightHand  0.139117 2.93819 1.71741
LeftUpLeg  2.60466 -0.126065 0.378567
LeftLeg  -1.77691 13.7509 -0.563081
LeftFoot  -1.33057 0.137428 -1.53961
LeftToes  4.76857e-008 1.46588e-008 1.31384e-009
23
root  -2.9465 40.9355 1.48686 -13.8295 -88.3936 14.7669
RightUpLeg  3.31119 -0.925692 -1.35605
RightLeg  -1.18451 -18.2515 -0.204969
RightFoot  -1.82508 -0.286819 3.29982
RightToes  -3.10678e-008 1.75238e-005 3.56266e-009
Spine  -0.986047 -0.753222 -1.91108
Spine1  -1.90637 -0.570941 -0.581188
HEad  -1.00151 -6.73366 1.7318
LeftShoulder1  0.137524 1.7186 0.857235
LeftArm  -54.0889 -10.865 7.51625
LeftForeArm  57.3954 3.96644 6.87728
LeftHand  -0.114177 0.345308 2.6123
RightShoulder  0.178157 -1.58274 0.947738
RightArm  -44.7679 9.96258 -2.03623
RightForeArm  33.8935 -5.08277 -0.0150506
RightHand  0.123421 2.86037 1.51899
LeftUpLeg  2.6482 -0.107686 0.390225
LeftLeg  -1.78819 13.6667 -0.568604
LeftFoot  -1.32929 0.134351 -1.49663
LeftToes  4.76857e-008 1.46588e-008 1.31384e-009
24
root  -2.94986 40.9359 1.47957 -13.0514 -88.2999 14.0257
RightUpLeg  3.29659 -0.919022 -1.34479
RightLeg  -1.20322 -18.3741 -0.195506
RightFoot  -1.8405 -0.288815 3.33079
RightToes  -3.10678e-008 1.75238e-005 3.56266e-009
Spine  -1.07467 -0.775335 -1.98285
Spine1  -1.85637 -0.600914 -0.502817
HEad  -1.01366 -6.74628 1.75177
LeftShoulder1  0.150359 1.58501 0.703296
LeftArm  -53.9052 -10.7278 7.70367
LeftForeArm  57.6682 3.98317 6.7339
LeftHand  -0.133405 0.0847766 2.93039
RightShoulder  0.176011 -1.60212 0.925624
RightArm  -44.7514 10.0047 -2.02336
RightForeArm  34.0115 -4.89704 0.0328023
RightHand  0.118147 2.85825 1.44241
LeftUpLeg  2.58826 -0.0959459 0.418441
LeftLeg  -1.75164 13.5592 -0.573149
LeftFoot  -1.32943 0.139615 -1.58355
LeftToes  4.76857e-008 1.46588e-008 1.31384e-009
25
root  -2.9529 40.936 1.47023 -12.3501 -88.2554 13.3113
RightUpLeg  3.35244 -0.92292 -1.31947
RightLeg  -1.2776 -18.4256 -0.14996
RightFoot  -1.82944 -0.279499 3.18624
RightToes  -3.10678e-008 1.75238e-005 3.56266e-009
Spine  -1.18416 -0.804584 -2.01281
Spine1  -1.73434 -0.628952 -0.495466
HEad  -0.976123 -6.66455 1.84837
LeftShoulder1  0.151588 1.57447 0.677924
LeftArm  -53.8669 -10.5878 7.4611
LeftForeArm  58.1553 3.95359 6.81235
LeftHand  -0.161734 -0.352562 3.33884
RightShoulder  0.191315 -1.47785 1.14171
RightArm  -44.8452 10.0946 -2.04375
RightForeArm  34.0883 -4.64312 0.0319776
RightHand  0.141744 3.0311 1.7226
LeftUpLeg  2.61708 -0.0927059 0.43301
LeftLeg  -1.78712 13.5019 -0.560499
LeftFoot  -1.33101 0.136736 -1.54402
LeftToes  4.76857e-008 1.46588e-008 1.31384e-009
26
root  -2.94868 40.936 1.45992 -10.1607 -88.2818 11.0227
RightUpLeg  3.48696 -0.954804 -1.27737
RightLeg  -1.34351 -18.3556 -0.0521423
RightFoot  -1.80135 -0.277435 3.15421
RightToes  -3.10678e-008 1.75238e-005 3.56266e-009
Spine  -0.979593 -0.791083 -2.08185
Spine1  -1.89209 -0.647821 -0.317935
HEad  -0.920989 -6.55183 1.89337
LeftShoulder1  0.145716 1.69275 0.470359
LeftArm  -53.2004 -10.4119 7.10952
LeftForeArm  57.3927 4.07988 6.23871
LeftHand  -0.161095 0.227478 3.63691
RightShoulder  0.198184 -1.48871 1.60862
RightArm  -45.3533 10.4411 -2.00903
RightForeArm  34.1717 -3.88984 -0.156974
RightHand  0.119345 2.25199 1.6349
LeftUpLeg  2.68888 -0.0146888 0.529574
LeftLeg  -1.73011 13.4276 -0.544708
LeftFoot  -1.33712 0.140537 -1.60832
LeftToes  4.76857e-008 1.46588e-008 1.31384e-009
27
root  -2.93971 40.9358 1.45561 -16.5077 -88.6326 17.207
RightUpLeg  3.57908 -0.944383 -1.26368
RightLeg  -1.29719 -17.987 -0.0885209
RightFoot  -1.77083 -0.276799 3.14433
RightToes  -3.10678e-008 1.75238e-005 3.56266e-009
Spine  -0.707492 -0.597446 -2.29428
Spine1  -2.03805 -0.512716 0.0701944
HEad  -0.982686 -6.2464 1.96765
LeftShoulder1  0.159998 1.56742 0.217848
LeftArm  -53.309 -10.181 6.47147
LeftForeArm  56.5078 4.07158 6.44216
LeftHand  -0.179607 0.557175 4.26865
RightShoulder  0.205572 -1.57095 2.51147
RightArm  -45.6801 10.9967 -2.13247
RightForeArm  35.9624 -2.14364 -0.0509701
RightHand  0.139548 2.12207 1.98066
LeftUpLeg  2.94546 0.0257335 0.539287
LeftLeg  -1.83321 13.7754 -0.55882
LeftFoot  -1.34508 0.14156 -1.62931
LeftToes  4.76857e-008 1.46588e-008 1.31384e-009
